<svg xmlns="http://www.w3.org/2000/svg" viewBox="0 0 85 85">
<path fill="#a4c58c"
 d="M55.644,-0.003 C55.959,-0.003 56.275,-0.003 56.590,-0.003 C56.742,0.180 56.755,0.050 56.969,0.188 C57.256,0.373 57.393,0.798 57.631,1.041 C57.731,6.670 56.170,10.329 53.846,13.467 C53.361,14.122 52.881,14.879 52.238,15.365 C51.377,16.013 50.520,16.698 49.589,17.262 C49.183,17.507 48.622,17.549 48.359,17.925 C48.119,18.268 48.080,18.689 47.886,19.064 C47.185,20.416 46.611,21.795 45.899,23.237 C44.401,26.270 42.776,29.633 41.736,33.007 C41.799,33.007 41.862,33.007 41.925,33.007 C42.612,31.984 43.782,31.093 44.763,30.352 C45.452,29.831 46.053,29.067 46.750,28.550 C48.535,27.224 50.327,26.057 52.238,24.850 C53.496,24.055 54.626,22.785 56.590,22.763 C57.061,23.337 57.557,23.429 57.631,24.470 C57.055,25.261 56.944,26.314 56.496,27.221 C55.268,29.704 54.297,32.481 53.184,35.095 C53.279,35.095 53.373,35.095 53.468,35.095 C53.836,34.344 55.503,33.344 56.212,32.818 C58.312,31.259 60.169,29.255 62.267,27.696 C62.967,27.175 65.018,25.896 65.295,25.134 C65.454,24.712 64.999,23.331 65.200,22.478 C65.572,20.902 65.965,19.502 66.714,18.305 C68.035,16.195 70.243,14.654 72.864,13.847 C76.571,12.706 81.029,15.211 82.420,17.071 C83.201,18.116 84.047,19.342 84.502,20.677 C86.634,26.935 81.460,31.959 77.122,33.197 C75.415,33.684 73.656,33.064 72.107,33.007 C71.447,33.846 69.700,34.562 69.269,35.474 C70.842,35.474 72.619,36.043 73.999,36.422 C77.706,37.440 82.737,38.227 84.502,41.070 C85.072,41.989 84.880,43.870 84.880,45.339 C84.880,50.203 85.309,52.251 81.852,53.876 C81.938,58.058 80.650,61.802 79.392,64.784 C75.592,73.795 68.705,82.324 58.672,84.988 C53.058,84.988 47.443,84.988 41.830,84.988 C36.658,84.988 31.485,84.988 26.313,84.988 C25.073,84.619 23.680,84.229 22.529,83.660 C14.378,79.638 8.339,72.494 5.025,63.645 C4.228,61.520 3.876,59.188 3.322,56.816 C3.259,55.836 3.196,54.856 3.132,53.876 C2.880,53.750 2.628,53.623 2.376,53.496 C1.702,53.023 0.918,52.307 0.483,51.599 C-0.284,50.348 0.105,46.283 0.105,44.295 C0.105,43.473 0.105,42.651 0.105,41.829 C0.514,40.487 1.663,39.767 2.754,39.078 C6.105,36.962 10.564,36.368 15.054,35.284 C16.667,34.895 18.308,34.993 19.879,34.620 C20.478,34.478 21.398,34.705 21.677,34.241 C20.789,33.254 20.483,31.599 19.974,30.256 C18.839,27.267 18.246,23.942 17.325,20.581 C17.262,19.981 17.199,19.380 17.136,18.779 C16.662,16.808 16.246,15.141 18.933,15.175 C19.446,15.608 20.298,15.501 21.015,15.744 C22.748,16.332 24.555,17.004 26.124,17.831 C32.093,20.974 36.163,25.718 37.667,33.387 C37.888,33.387 38.109,33.387 38.329,33.387 C40.909,28.782 38.737,21.978 37.099,18.210 C30.649,18.019 26.163,14.673 23.475,10.622 C22.621,9.335 21.299,7.711 21.299,5.689 C21.565,5.389 21.614,5.067 21.961,4.836 C22.418,4.465 23.392,4.533 24.232,4.551 C25.948,4.587 27.753,4.914 29.152,5.310 C33.783,6.617 37.296,8.414 38.897,12.709 C39.197,13.513 39.270,14.520 39.465,15.365 C39.465,15.712 39.465,16.060 39.465,16.408 C39.974,17.688 40.843,19.089 41.357,20.487 C41.598,21.142 41.867,23.530 42.303,23.807 C42.380,23.304 42.685,22.944 42.871,22.573 C43.271,21.774 43.406,20.992 43.817,20.202 C44.328,19.220 45.116,18.076 45.520,17.071 C45.520,16.345 45.520,15.617 45.520,14.890 C45.972,12.913 46.002,10.932 46.656,9.199 C47.803,6.157 49.769,3.444 52.238,1.705 C52.818,1.296 53.588,0.846 54.225,0.567 C54.723,0.349 55.274,0.331 55.644,-0.003 ZM54.225,3.982 C53.680,4.793 52.546,5.185 51.954,5.974 C50.397,8.049 48.776,10.600 48.737,14.132 C48.800,14.132 48.863,14.132 48.926,14.132 C49.522,13.350 50.600,12.935 51.197,12.140 C52.732,10.094 54.367,7.426 54.414,3.982 C54.351,3.982 54.288,3.982 54.225,3.982 ZM36.248,15.080 C36.099,10.340 30.024,8.203 25.367,7.681 C25.367,7.712 25.367,7.744 25.367,7.775 C25.336,7.775 25.304,7.775 25.272,7.775 C25.272,7.839 25.272,7.902 25.272,7.966 C25.574,8.209 25.613,8.593 25.840,8.914 C26.296,9.558 26.868,10.166 27.354,10.811 C28.765,12.685 33.069,14.930 36.248,15.080 ZM72.012,17.262 C72.171,18.242 72.885,19.094 73.337,19.822 C74.762,22.123 76.122,23.745 78.352,25.229 C78.829,25.547 80.754,26.948 81.190,26.557 C82.074,25.468 81.969,22.712 81.474,21.340 C80.531,18.728 79.290,17.618 76.459,16.882 C75.947,16.748 74.779,16.499 73.999,16.692 C73.355,16.852 72.673,17.154 72.012,17.262 ZM20.163,18.779 C20.194,20.617 21.000,23.357 21.488,24.945 C23.038,29.993 24.391,34.738 27.922,37.751 C28.512,38.254 29.037,39.068 29.719,39.457 C30.133,39.694 30.620,39.618 31.044,39.837 C31.560,40.104 31.928,40.610 32.558,40.786 C32.558,40.723 32.558,40.659 32.558,40.596 C31.907,39.771 31.652,38.598 31.139,37.655 C29.973,35.513 28.574,33.365 27.165,31.395 C26.321,30.217 24.329,28.654 24.326,26.842 C24.914,26.207 25.009,25.776 26.313,25.799 C28.822,28.326 30.917,31.429 32.842,34.525 C33.262,35.201 34.440,38.047 34.923,38.319 C34.923,37.371 34.923,36.422 34.923,35.474 C34.665,35.049 34.876,34.432 34.734,33.862 C34.351,32.322 34.064,30.641 33.409,29.308 C31.399,25.216 28.432,22.587 24.421,20.487 C23.245,19.871 21.753,18.867 20.163,18.779 ZM78.919,29.023 C77.945,28.844 77.155,28.091 76.459,27.601 C74.603,26.295 72.945,24.789 71.634,22.953 C71.184,22.323 69.970,19.600 69.363,19.443 C69.083,20.440 68.512,21.333 68.228,22.573 C68.051,23.346 68.280,24.429 68.417,24.945 C69.168,27.762 70.250,29.038 72.864,29.973 C73.553,30.218 74.882,30.612 75.986,30.352 C77.094,30.091 77.982,29.578 78.919,29.308 C78.919,29.213 78.919,29.118 78.919,29.023 ZM52.522,28.170 C51.585,29.125 50.211,29.754 49.116,30.541 C46.413,32.484 43.655,35.287 41.736,38.035 C40.641,39.602 39.507,41.285 39.465,43.916 C39.496,43.916 39.528,43.916 39.559,43.916 C39.559,43.948 39.559,43.979 39.559,44.011 C46.944,42.597 48.061,39.307 50.629,33.197 C51.300,31.601 52.260,29.873 52.711,28.170 C52.648,28.170 52.585,28.170 52.522,28.170 ZM40.979,48.564 C42.647,48.584 44.785,48.794 46.277,48.469 C46.940,48.325 47.839,48.656 48.359,48.374 C48.625,48.230 48.868,47.799 49.116,47.615 C50.262,46.763 51.304,45.795 52.427,44.959 C55.722,42.508 58.777,39.820 62.078,37.371 C62.467,37.083 63.523,36.316 63.781,35.948 C63.990,35.650 64.043,35.279 64.349,35.095 C64.681,34.893 65.083,34.928 65.389,34.715 C66.231,34.128 66.932,33.243 67.755,32.628 C68.229,32.273 69.050,31.884 69.269,31.300 C68.315,30.969 66.959,29.178 66.525,28.265 C65.080,29.111 63.967,30.507 62.646,31.490 C58.665,34.451 55.070,37.816 51.102,40.786 C49.491,41.992 48.181,43.693 46.466,44.769 C44.731,45.859 42.879,46.158 40.789,46.951 C40.950,47.400 40.983,47.920 40.979,48.564 ZM22.339,37.371 C21.888,37.638 21.245,37.417 20.636,37.561 C19.336,37.866 17.872,37.787 16.473,38.130 C13.235,38.924 9.856,39.355 7.012,40.406 C5.868,40.829 3.600,41.232 3.227,42.303 C2.833,43.031 5.952,44.705 7.106,44.391 C9.387,43.769 12.079,43.456 14.581,42.873 C14.896,42.873 15.212,42.873 15.527,42.873 C17.211,42.482 19.323,42.506 21.015,42.113 C21.362,42.113 21.709,42.113 22.055,42.113 C23.177,41.856 24.657,41.804 25.745,41.544 C26.397,41.390 26.899,41.663 27.259,41.260 C26.021,40.523 24.311,38.621 23.569,37.371 C23.159,37.371 22.749,37.371 22.339,37.371 ZM66.052,38.035 C65.499,38.588 64.794,38.987 64.159,39.457 C63.568,39.896 63.047,40.536 62.456,40.975 C62.060,41.270 61.540,41.459 61.321,41.924 C61.668,41.924 62.015,41.924 62.362,41.924 C63.160,42.413 66.027,42.213 67.187,42.493 C69.321,43.009 71.663,43.022 73.810,43.631 C74.962,43.958 76.370,44.422 77.500,44.675 C78.554,44.910 81.758,43.201 81.852,42.303 C81.632,42.050 81.411,41.798 81.190,41.544 C79.797,40.690 78.191,40.587 76.459,40.026 C73.349,39.021 69.602,38.483 66.052,38.035 ZM57.915,44.580 C57.376,45.090 56.719,45.461 56.117,45.908 C55.688,46.226 55.315,46.728 54.887,47.047 C54.435,47.383 53.717,47.659 53.468,48.185 C54.130,48.185 54.792,48.185 55.455,48.185 C56.244,47.710 59.294,48.067 60.469,47.805 C61.600,47.553 62.918,47.711 64.159,47.426 C66.321,46.928 68.728,46.816 70.877,46.382 C70.877,46.350 70.877,46.319 70.877,46.287 C70.782,46.256 70.688,46.223 70.593,46.192 C69.841,45.735 68.378,45.956 67.376,45.718 C65.214,45.203 62.546,45.270 60.280,44.769 C59.437,44.583 58.605,44.816 57.915,44.580 ZM21.299,45.149 C20.853,45.427 20.216,45.198 19.596,45.339 C17.820,45.744 15.384,46.075 13.446,46.098 C13.446,46.160 13.446,46.223 13.446,46.287 C15.558,46.603 17.672,46.920 19.785,47.236 C20.313,46.450 21.701,45.876 22.055,45.149 C21.803,45.149 21.551,45.149 21.299,45.149 ZM29.719,45.718 C29.401,45.921 29.040,45.789 28.584,45.908 C27.533,46.182 26.351,46.429 25.367,46.856 C23.128,47.830 21.319,49.444 20.352,51.694 C20.057,52.382 20.162,52.977 19.974,53.781 C19.805,54.504 19.549,56.105 19.785,57.101 C19.974,57.899 20.136,59.025 20.352,59.756 C20.768,61.159 20.994,62.374 21.488,63.551 C21.685,64.022 21.616,64.557 22.055,64.784 C22.500,63.372 23.723,62.130 24.516,60.990 C26.838,57.652 29.180,54.336 32.463,51.978 C33.263,51.404 34.358,50.815 35.302,50.461 C35.975,50.208 36.555,50.168 37.099,49.797 C37.383,49.449 37.667,49.101 37.951,48.753 C38.004,47.648 37.686,46.060 36.721,46.003 C35.928,46.629 34.016,47.097 33.031,47.615 C30.777,48.800 28.410,50.524 26.976,52.548 C26.005,53.916 26.160,56.135 23.853,56.152 C23.272,55.489 22.794,55.523 22.812,54.160 C23.288,53.618 23.378,52.700 23.759,52.074 C24.233,51.293 24.818,50.531 25.367,49.797 C25.924,49.054 27.531,47.599 28.300,47.047 C28.862,46.643 29.880,46.345 30.192,45.718 C30.035,45.718 29.877,45.718 29.719,45.718 ZM3.132,46.287 C3.122,47.630 2.997,49.281 3.227,50.461 C5.207,51.582 7.290,52.290 9.661,53.117 C10.810,53.517 12.077,53.563 13.162,53.876 C13.603,54.003 16.643,54.366 16.662,54.350 C17.006,53.937 16.774,53.379 16.946,52.738 C17.183,51.853 17.588,50.951 17.798,50.082 C17.766,50.082 17.735,50.082 17.703,50.082 C17.703,50.050 17.703,50.018 17.703,49.987 C16.330,49.961 14.907,49.631 13.729,49.322 C13.193,49.259 12.657,49.196 12.121,49.133 C10.150,48.598 8.031,48.312 6.160,47.615 C5.165,47.245 4.159,46.495 3.132,46.287 ZM81.663,46.287 C81.305,46.616 80.915,46.616 80.433,46.856 C78.515,47.812 76.079,48.284 73.810,48.943 C73.233,49.111 72.895,48.975 72.296,49.133 C70.367,49.641 67.976,49.782 65.957,50.271 C65.043,50.334 64.128,50.397 63.213,50.461 C61.808,50.789 59.913,50.702 58.482,51.030 C57.883,51.030 57.284,51.030 56.685,51.030 C55.855,51.215 54.616,51.119 53.752,51.315 C53.153,51.315 52.553,51.315 51.954,51.315 C51.185,51.486 50.001,51.213 49.116,51.409 C46.557,51.977 42.310,51.596 39.370,51.599 C38.499,52.687 37.208,52.835 35.869,53.496 C35.156,53.849 34.500,54.378 33.882,54.825 C33.438,55.146 32.760,55.413 32.558,55.963 C33.441,55.963 34.324,55.963 35.207,55.963 C35.841,56.359 37.219,55.882 38.046,56.058 C38.895,56.237 40.160,56.152 41.168,56.152 C43.028,56.152 44.890,56.152 46.750,56.152 C47.577,56.142 48.900,56.135 49.683,55.963 C51.217,55.624 52.956,56.074 54.319,55.773 C55.285,55.559 56.358,55.762 57.158,55.583 C57.694,55.583 58.230,55.583 58.766,55.583 C60.189,55.263 62.016,55.336 63.402,55.014 C64.765,54.698 66.047,54.959 67.376,54.634 C69.793,54.046 72.511,53.797 74.756,53.117 C75.237,52.971 75.507,53.075 75.986,52.927 C77.482,52.467 79.048,51.867 80.339,51.220 C80.909,50.933 81.532,50.887 81.758,50.271 C82.062,49.790 81.863,47.093 81.852,46.287 C81.789,46.287 81.726,46.287 81.663,46.287 ZM6.349,55.204 C6.015,56.246 6.637,58.265 6.917,59.188 C7.321,60.520 7.396,61.657 7.863,62.887 C8.578,64.769 9.600,66.552 10.512,68.199 C13.994,74.480 19.230,79.690 26.692,81.953 C32.589,81.953 38.488,81.953 44.385,81.953 C49.020,81.953 53.658,81.953 58.293,81.953 C66.518,79.439 71.915,73.482 75.513,66.301 C77.075,63.186 78.409,59.664 78.730,55.299 C78.699,55.299 78.667,55.299 78.636,55.299 C78.636,55.267 78.636,55.236 78.636,55.204 C76.057,56.287 72.850,56.571 69.931,57.291 C68.768,57.577 67.800,57.392 66.619,57.670 C64.205,58.239 61.278,58.050 58.766,58.618 C58.262,58.618 57.757,58.618 57.252,58.618 C55.892,58.920 54.050,58.866 52.616,58.998 C51.796,58.998 50.976,58.998 50.156,58.998 C48.481,59.366 45.839,59.188 43.912,59.188 C40.916,59.156 37.919,59.125 34.923,59.093 C34.185,58.930 33.035,59.187 32.179,58.998 C31.452,58.837 30.597,58.810 29.719,58.808 C29.186,59.741 28.341,60.505 27.732,61.370 C26.820,62.667 26.119,63.989 25.272,65.353 C24.952,65.870 24.433,66.430 24.137,66.966 C23.440,68.227 23.301,69.832 21.299,69.812 C19.412,67.897 18.442,64.247 17.514,61.370 C17.240,60.520 17.231,58.164 16.852,57.575 C16.852,57.544 16.852,57.512 16.852,57.480 C14.897,57.475 12.383,56.824 10.702,56.343 C9.154,55.898 7.675,55.820 6.349,55.204 ZM67.755,60.705 C68.070,60.705 68.386,60.705 68.701,60.705 C68.853,60.887 68.865,60.757 69.079,60.895 C69.366,61.080 69.504,61.506 69.742,61.749 C69.775,63.648 68.822,65.740 68.228,67.156 C66.238,71.894 64.244,75.513 59.807,77.780 C58.629,78.381 55.971,79.401 53.846,78.918 C51.764,78.444 49.864,78.067 48.169,77.210 C47.595,76.920 46.973,76.269 46.372,76.072 C45.678,76.072 44.984,76.072 44.290,76.072 C41.587,75.467 36.398,75.503 36.437,72.373 C37.025,71.738 37.119,71.307 38.424,71.329 C39.374,72.439 44.229,73.364 46.466,72.941 C46.985,71.545 49.343,70.101 50.535,69.242 C54.198,66.606 58.486,64.588 62.835,62.603 C64.123,62.014 65.480,61.620 66.714,61.085 C67.140,60.900 67.457,60.981 67.755,60.705 ZM65.768,64.689 C64.948,65.389 63.547,65.518 62.551,66.017 C59.818,67.387 56.996,68.637 54.509,70.190 C53.509,70.815 52.045,71.326 51.386,72.278 C51.544,72.278 51.702,72.278 51.859,72.278 C52.256,71.980 52.823,72.064 53.373,71.899 C54.533,71.548 55.453,71.050 56.874,71.140 C57.076,71.408 57.389,71.747 57.631,71.993 C57.661,72.673 57.593,72.928 57.442,73.511 C55.989,74.395 53.920,74.866 52.049,75.313 C52.049,75.376 52.049,75.439 52.049,75.503 C52.749,75.535 53.431,75.721 54.036,75.882 C55.179,76.186 56.785,75.766 57.536,75.503 C60.986,74.298 62.600,72.214 64.159,69.148 C64.650,68.184 65.135,67.049 65.579,66.017 C65.701,65.733 65.954,64.895 65.862,64.784 C65.862,64.752 65.862,64.720 65.862,64.689 C65.831,64.689 65.799,64.689 65.768,64.689 Z"/>
</svg>