<svg xmlns="http://www.w3.org/2000/svg" viewBox="0 0 82 70">
<path fill="#a4c58c"
 d="M40.575,-0.004 C41.922,-0.033 42.551,0.588 43.418,1.041 C44.877,1.804 46.356,2.482 47.776,3.225 C51.672,5.263 55.626,6.987 59.525,9.018 C61.009,9.791 62.549,10.504 64.073,11.298 C64.528,11.534 65.104,11.997 65.589,12.153 C70.705,12.153 75.823,12.153 80.939,12.153 C81.170,12.423 81.489,12.506 81.697,12.817 C82.173,13.423 81.981,15.000 81.981,16.046 C81.981,18.832 81.981,21.618 81.981,24.404 C81.981,35.262 81.981,46.123 81.981,56.980 C81.981,60.018 81.981,63.058 81.981,66.097 C81.981,67.537 82.181,69.027 81.318,69.611 C80.532,70.231 78.066,69.896 76.770,69.896 C72.791,69.896 68.810,69.896 64.831,69.896 C49.357,69.896 33.878,69.896 18.403,69.896 C13.919,69.896 9.433,69.896 4.949,69.896 C3.385,69.896 0.900,70.234 0.306,69.231 C-0.209,68.363 0.116,66.099 0.117,64.863 C0.117,61.190 0.117,57.517 0.117,53.846 C0.117,40.297 0.117,26.745 0.117,13.198 C0.468,12.835 0.798,12.504 1.159,12.153 C6.275,12.153 11.392,12.153 16.508,12.153 C16.865,12.037 17.309,11.664 17.645,11.487 C18.730,10.921 19.822,10.418 20.867,9.873 C24.081,8.195 27.357,6.686 30.531,5.030 C32.868,3.809 35.246,2.714 37.543,1.516 C38.487,1.023 39.833,0.715 40.575,-0.004 ZM40.859,3.225 C40.170,4.028 38.007,4.681 36.974,5.219 C33.920,6.812 30.742,8.372 27.689,9.968 C26.966,10.346 23.692,11.685 23.425,12.153 C35.173,12.153 46.924,12.153 58.672,12.153 C58.672,12.089 58.672,12.026 58.672,11.962 C57.520,11.809 55.266,10.326 54.219,9.778 C51.074,8.133 47.891,6.765 44.744,5.124 C43.723,4.592 42.046,3.380 40.859,3.225 ZM3.149,15.191 C3.149,32.411 3.149,49.637 3.149,66.857 C28.413,66.857 53.685,66.857 78.949,66.857 C78.949,49.637 78.949,32.411 78.949,15.191 C53.685,15.191 28.413,15.191 3.149,15.191 ZM58.104,24.309 C63.959,24.239 66.852,26.662 68.811,30.482 C69.602,32.025 70.311,34.878 69.663,37.226 C69.312,38.499 68.813,39.818 68.147,40.834 C67.821,41.333 67.052,41.818 66.821,42.354 C66.821,48.146 66.821,53.941 66.821,59.734 C66.470,60.096 66.140,60.427 65.779,60.778 C65.244,60.777 64.805,60.791 64.452,60.589 C64.136,60.241 63.820,59.892 63.505,59.544 C62.557,58.626 61.610,57.707 60.662,56.790 C60.204,56.331 59.842,55.564 59.051,55.460 C57.378,57.170 55.703,58.879 54.030,60.589 C53.677,60.790 53.238,60.778 52.703,60.778 C52.551,60.597 52.538,60.727 52.324,60.589 C52.037,60.403 51.899,59.978 51.661,59.734 C51.661,53.941 51.661,48.146 51.661,42.354 C49.579,40.883 47.708,35.575 49.008,31.907 C49.842,29.551 51.225,27.540 53.082,26.208 C53.957,25.581 55.138,25.069 56.209,24.688 C56.786,24.484 57.626,24.624 58.104,24.309 ZM13.287,27.348 C22.698,27.348 32.112,27.348 41.522,27.348 C41.747,27.593 42.211,27.722 42.375,28.013 C42.812,28.790 42.449,29.748 41.902,30.102 C41.117,30.729 36.748,30.387 35.269,30.387 C29.458,30.387 23.646,30.387 17.835,30.387 C15.212,30.387 12.237,31.202 12.245,28.393 C12.412,28.253 12.390,28.083 12.529,27.918 C12.731,27.678 13.086,27.590 13.287,27.348 ZM58.293,27.348 C57.599,27.538 56.904,27.728 56.209,27.918 C54.357,28.831 52.798,30.381 52.040,32.382 C50.736,35.820 52.490,38.737 54.124,40.454 C54.282,40.676 54.440,40.897 54.598,41.120 C55.019,41.374 55.914,41.655 56.588,41.974 C57.341,42.331 58.875,42.867 60.188,42.544 C63.013,41.850 64.865,40.668 66.063,38.365 C68.648,33.395 64.926,28.725 61.136,27.538 C60.322,27.283 59.319,27.338 58.293,27.348 ZM13.287,33.426 C19.666,33.426 26.047,33.426 32.426,33.426 C33.514,33.789 33.814,35.506 32.806,36.181 C32.117,36.735 29.051,36.465 27.784,36.465 C24.057,36.465 20.330,36.465 16.603,36.465 C14.256,36.465 12.232,36.930 12.245,34.471 C12.596,34.109 12.926,33.778 13.287,33.426 ZM13.287,39.505 C19.666,39.505 26.047,39.505 32.426,39.505 C32.578,39.686 32.591,39.556 32.806,39.694 C33.093,39.880 33.231,40.305 33.469,40.549 C33.500,41.432 33.317,41.930 32.806,42.259 C32.117,42.813 29.051,42.544 27.784,42.544 C24.057,42.544 20.330,42.544 16.603,42.544 C14.256,42.544 12.232,43.008 12.245,40.549 C12.483,40.305 12.621,39.881 12.908,39.694 C13.122,39.556 13.135,39.686 13.287,39.505 ZM54.693,44.633 C54.693,48.242 54.693,51.852 54.693,55.460 C54.756,55.460 54.819,55.460 54.882,55.460 C55.537,54.448 56.690,53.647 57.535,52.801 C57.896,52.439 58.260,51.853 58.767,51.661 C59.083,51.661 59.399,51.661 59.715,51.661 C60.610,52.541 61.576,53.337 62.462,54.225 C62.864,54.628 63.209,55.252 63.789,55.460 C63.789,51.852 63.789,48.242 63.789,44.633 C62.203,44.882 60.398,46.116 58.104,45.583 C57.036,45.335 55.612,44.736 54.693,44.633 ZM16.982,54.131 C16.279,54.117 15.603,53.630 15.277,53.751 C15.041,54.026 14.933,54.519 14.613,54.700 C13.454,55.358 12.766,54.410 12.245,53.846 C12.152,50.993 13.314,48.842 14.519,47.197 C15.449,45.927 16.884,46.772 17.361,47.862 C18.016,47.654 18.437,47.594 19.161,47.768 C19.346,48.045 19.717,48.291 19.825,48.622 C19.825,50.142 19.825,51.661 19.825,53.181 C19.888,53.181 19.951,53.181 20.014,53.181 C20.014,53.118 20.014,53.054 20.014,52.991 C20.506,52.313 20.347,51.463 21.056,50.996 C21.336,50.764 21.667,50.709 22.193,50.711 C22.674,51.143 23.026,51.209 23.330,51.851 C23.804,51.535 24.278,51.218 24.752,50.902 C25.198,50.706 25.714,50.688 26.173,50.521 C26.404,49.897 26.666,49.409 27.499,49.382 C27.663,49.282 28.064,49.331 28.257,49.477 C28.750,49.632 29.091,50.067 29.110,50.711 C29.582,51.718 27.918,53.547 27.120,53.751 C26.592,53.885 26.263,53.502 25.794,53.751 C25.137,54.099 24.602,54.910 23.899,55.270 C23.376,55.538 22.603,55.430 22.099,55.745 C21.261,56.646 21.159,57.763 19.351,57.740 C19.211,57.574 19.042,57.593 18.877,57.455 C17.987,56.710 17.174,55.553 16.982,54.131 Z"/>
</svg>