<svg xmlns="http://www.w3.org/2000/svg" viewBox="0 0 97 70">
<path fill="#a4c58c"
 d="M23.701,0.031 C28.550,-0.046 33.584,0.076 37.559,1.071 C39.534,1.565 41.270,1.593 43.063,2.206 C44.373,2.655 45.772,3.253 46.955,3.909 C47.521,4.224 47.954,4.888 48.663,5.044 C48.994,4.577 49.505,4.415 49.992,4.098 C51.706,2.983 53.877,2.296 56.066,1.639 C56.899,1.389 57.570,1.485 58.439,1.261 C60.189,0.808 62.439,0.746 64.323,0.315 C64.830,0.315 65.336,0.315 65.842,0.315 C67.033,0.057 68.638,0.421 70.018,0.125 C70.887,-0.060 72.566,-0.068 73.435,0.125 C74.809,0.431 76.422,0.049 77.611,0.315 C78.117,0.315 78.623,0.315 79.130,0.315 C80.107,0.539 81.273,0.436 82.357,0.693 C84.854,1.284 87.483,1.588 89.665,2.396 C92.268,3.359 94.893,4.346 96.308,6.463 C97.135,7.699 96.973,9.875 96.973,11.950 C96.973,15.795 96.973,19.642 96.973,23.489 C96.973,33.009 96.973,42.533 96.973,52.054 C96.973,57.571 97.106,63.344 96.878,68.701 C96.337,69.132 96.070,69.731 95.264,69.931 C94.661,70.081 93.968,69.669 93.556,69.553 C92.418,69.232 91.148,69.237 90.044,68.986 C88.812,68.705 87.485,68.856 86.343,68.607 C85.868,68.607 85.394,68.607 84.919,68.607 C84.091,68.428 82.976,68.633 81.977,68.418 C80.159,68.027 77.739,68.135 75.713,68.135 C73.586,68.132 71.038,67.712 69.069,68.135 C68.239,68.312 67.123,68.077 66.411,68.229 C65.589,68.229 64.766,68.229 63.944,68.229 C62.843,68.464 61.301,68.376 60.242,68.607 C59.135,68.670 58.028,68.733 56.920,68.797 C54.991,69.229 52.854,69.100 50.846,69.553 C50.119,69.717 48.898,70.147 47.999,69.931 C45.566,69.349 42.624,69.359 40.121,68.797 C38.778,68.494 37.294,68.690 36.040,68.418 C34.680,68.355 33.319,68.292 31.959,68.229 C31.453,68.229 30.946,68.229 30.440,68.229 C29.183,67.961 26.781,67.919 25.505,68.135 C24.823,68.249 23.653,67.982 22.942,68.135 C20.759,68.166 18.576,68.197 16.393,68.229 C15.425,68.436 14.196,68.176 13.071,68.418 C10.504,68.971 7.510,68.781 5.099,69.364 C3.384,69.779 1.268,70.349 0.353,68.986 C-0.244,68.095 0.069,65.732 0.069,64.351 C0.069,60.410 0.069,56.468 0.069,52.528 C0.069,37.647 0.069,22.762 0.069,7.881 C0.389,7.599 0.406,7.027 0.638,6.652 C0.963,6.126 1.571,5.413 2.062,5.044 C4.859,2.947 8.329,2.085 12.312,1.071 C14.918,0.408 17.844,0.714 20.569,0.125 C21.469,-0.069 23.006,0.468 23.701,0.031 ZM22.088,4.098 C21.708,4.320 20.993,4.078 20.475,4.193 C19.324,4.445 18.092,4.195 16.868,4.476 C12.177,5.556 7.068,5.656 4.150,8.450 C4.150,22.258 4.150,36.070 4.150,49.879 C4.150,53.631 4.150,57.383 4.150,61.135 C4.150,61.938 3.972,64.998 4.150,65.297 C4.252,65.368 4.240,65.354 4.434,65.391 C5.119,64.945 6.270,65.216 7.187,65.013 C8.687,64.682 10.590,64.777 12.122,64.445 C12.723,64.445 13.325,64.445 13.926,64.445 C14.986,64.218 16.389,64.519 17.627,64.257 C19.557,63.846 22.069,64.067 24.271,64.067 C32.328,64.066 39.436,64.721 46.385,65.581 C46.790,64.353 46.480,61.675 46.480,60.188 C46.480,56.216 46.480,52.243 46.480,48.271 C46.480,35.062 46.480,21.848 46.480,8.638 C46.404,8.527 46.407,8.479 46.385,8.260 C40.505,4.523 31.742,4.171 22.088,4.098 ZM50.561,65.581 C52.307,65.470 54.395,65.202 56.066,64.823 C57.379,64.526 58.835,64.713 60.052,64.445 C60.590,64.445 61.128,64.445 61.666,64.445 C63.095,64.138 65.028,64.385 66.506,64.067 C69.005,64.067 71.505,64.067 74.004,64.067 C80.700,64.066 87.026,64.656 92.892,65.391 C92.892,46.381 92.892,27.365 92.892,8.354 C92.539,8.129 92.303,7.704 91.943,7.503 C90.954,6.955 89.952,6.789 88.811,6.368 C84.268,4.691 78.438,4.100 72.296,4.098 C67.976,4.097 63.672,4.129 60.147,5.044 C59.501,5.212 59.081,5.053 58.439,5.233 C55.544,6.044 52.452,6.641 50.561,8.450 C50.561,27.491 50.561,46.539 50.561,65.581 ZM13.736,21.124 C19.303,21.124 24.873,21.124 30.440,21.124 C33.549,21.124 36.341,20.392 36.325,23.678 C35.861,24.193 35.733,24.847 34.996,25.097 C33.819,25.496 31.209,25.192 29.776,25.192 C25.916,25.192 22.056,25.192 18.197,25.192 C15.010,25.192 12.189,25.929 12.217,22.543 C12.536,22.207 12.679,21.665 13.071,21.408 C13.298,21.259 13.550,21.292 13.736,21.124 ZM62.330,21.124 C67.898,21.124 73.467,21.124 79.035,21.124 C80.914,21.124 84.032,20.668 84.540,22.070 C85.638,23.183 84.382,25.098 83.021,25.097 C82.438,25.463 79.056,25.192 78.086,25.192 C73.847,25.192 69.606,25.192 65.367,25.192 C63.406,25.192 61.192,25.436 61.002,23.678 C60.098,22.555 61.841,21.547 62.330,21.124 ZM13.736,33.231 C19.303,33.231 24.873,33.231 30.440,33.231 C33.554,33.231 36.340,32.492 36.325,35.785 C35.858,36.304 35.733,36.945 34.996,37.204 C33.849,37.608 31.187,37.299 29.776,37.299 C25.916,37.299 22.056,37.299 18.197,37.299 C15.014,37.299 12.189,38.029 12.217,34.650 C12.509,34.344 12.628,33.858 12.976,33.610 C13.214,33.440 13.528,33.421 13.736,33.231 ZM62.425,33.231 C67.993,33.231 73.562,33.231 79.130,33.231 C82.019,33.231 84.903,32.655 84.919,35.596 C84.453,36.206 84.359,36.900 83.590,37.204 C82.591,37.599 79.931,37.299 78.655,37.299 C74.796,37.299 70.935,37.299 67.076,37.299 C64.797,37.299 61.225,37.857 61.002,35.785 C60.673,35.380 60.919,34.877 61.002,34.366 C61.225,34.194 61.270,33.877 61.476,33.704 C61.741,33.483 62.153,33.446 62.425,33.231 ZM13.736,45.339 C18.829,45.339 23.923,45.339 29.017,45.339 C30.946,45.339 32.876,45.339 34.806,45.339 C35.608,45.588 35.817,46.229 36.325,46.758 C36.337,48.135 35.973,48.969 34.996,49.311 C33.790,49.734 30.971,49.406 29.491,49.406 C25.822,49.406 22.151,49.406 18.481,49.406 C17.127,49.406 14.652,49.693 13.546,49.311 C12.870,49.077 12.659,48.451 12.217,47.987 C12.176,45.942 12.734,46.221 13.736,45.339 ZM62.425,45.339 C67.993,45.339 73.562,45.339 79.130,45.339 C82.024,45.339 84.902,44.756 84.919,47.703 C84.461,48.303 84.368,49.036 83.590,49.311 C82.468,49.709 79.850,49.406 78.465,49.406 C74.669,49.406 70.872,49.406 67.076,49.406 C64.797,49.406 61.225,49.965 61.002,47.893 C60.673,47.487 60.919,46.984 61.002,46.473 C61.210,46.315 61.204,46.084 61.381,45.906 C61.650,45.636 62.127,45.580 62.425,45.339 Z"/>
</svg>