<svg xmlns="http://www.w3.org/2000/svg" xmlns:xlink="http://www.w3.org/1999/xlink" viewBox="0 0 16 16">
    <path fill="#7eb152" d="M2.826,0.220 C3.870,0.210 4.180,0.734 4.688,1.242 C5.217,1.772 5.747,2.301 6.276,2.830 C6.573,3.127 6.745,3.265 6.878,3.743 C6.906,3.841 6.951,4.068 6.915,4.218 C6.793,4.715 6.508,4.953 6.203,5.258 C6.026,5.441 5.850,5.624 5.674,5.806 C5.555,5.925 5.197,6.192 5.162,6.353 C5.243,6.438 5.279,6.564 5.345,6.664 C5.478,6.864 5.638,7.053 5.783,7.248 C5.942,7.462 6.171,7.638 6.331,7.850 C6.738,8.389 7.323,8.940 7.864,9.347 C7.942,9.406 8.004,9.507 8.083,9.566 C8.302,9.730 8.509,9.886 8.740,10.040 C8.858,10.119 8.968,10.240 9.142,10.259 C9.300,10.019 9.577,9.824 9.780,9.621 C10.203,9.199 10.547,8.673 11.222,8.507 C11.479,8.444 11.772,8.547 11.916,8.616 C12.528,8.912 12.921,9.457 13.376,9.912 C13.760,10.296 14.143,10.679 14.526,11.063 C14.703,11.240 14.950,11.404 15.056,11.647 C15.120,11.795 15.163,11.981 15.202,12.139 C15.247,12.326 15.213,12.657 15.165,12.796 C15.010,13.248 14.479,13.629 14.161,13.946 C13.887,14.221 13.653,14.532 13.285,14.713 C12.995,14.857 12.635,14.921 12.299,15.005 C11.782,15.137 10.953,15.092 10.474,14.969 C10.371,14.957 10.267,14.944 10.164,14.932 C9.833,14.837 9.473,14.776 9.160,14.640 C8.684,14.433 8.214,14.228 7.773,13.983 C7.523,13.845 7.275,13.648 7.024,13.509 C4.875,12.311 2.966,10.315 1.767,8.160 C1.639,7.930 1.468,7.694 1.329,7.467 C1.145,7.165 1.034,6.838 0.891,6.500 C0.373,5.272 0.058,3.368 0.745,2.045 C0.905,1.738 1.220,1.515 1.457,1.279 C1.719,1.011 1.980,0.744 2.242,0.476 C2.331,0.411 2.454,0.336 2.552,0.294 C2.643,0.254 2.758,0.278 2.826,0.220 ZM2.936,1.024 C2.872,1.072 2.780,1.086 2.716,1.134 C2.437,1.419 2.157,1.705 1.877,1.991 C1.736,2.132 1.524,2.274 1.439,2.465 C0.729,4.064 1.456,6.140 2.133,7.248 C2.653,8.100 3.191,8.914 3.775,9.694 C3.868,9.817 4.011,9.917 4.104,10.040 C4.268,10.257 4.453,10.479 4.670,10.642 C4.737,10.693 4.770,10.793 4.834,10.843 C5.103,11.058 5.328,11.332 5.601,11.537 C5.920,11.777 6.225,12.039 6.550,12.267 C7.165,12.701 7.825,13.068 8.503,13.436 C9.371,13.907 10.887,14.541 12.281,14.166 C12.499,14.107 12.676,14.104 12.865,14.020 C13.115,13.908 13.269,13.707 13.449,13.527 C13.741,13.241 14.033,12.955 14.326,12.669 C14.357,12.625 14.363,12.578 14.399,12.541 C14.403,11.850 14.079,11.766 13.741,11.427 C13.626,11.312 13.528,11.178 13.413,11.063 C13.054,10.704 12.677,10.362 12.318,10.004 C12.148,9.835 11.791,9.339 11.533,9.310 C11.303,9.171 10.951,9.582 10.857,9.676 C10.492,10.034 10.127,10.393 9.762,10.752 C9.657,10.858 9.455,11.140 9.306,11.172 C9.203,11.097 9.026,11.117 8.904,11.063 C8.669,10.958 8.419,10.807 8.211,10.661 C7.163,9.926 6.071,8.908 5.308,7.886 C4.915,7.358 4.360,6.878 4.250,6.080 C4.489,5.922 4.719,5.610 4.925,5.404 C5.276,5.054 5.639,4.721 5.966,4.346 C5.978,4.346 5.990,4.346 6.002,4.346 C6.109,4.220 6.125,4.032 6.112,3.834 C6.058,3.792 6.044,3.726 6.002,3.670 C5.881,3.507 5.657,3.326 5.509,3.178 C5.023,2.703 4.536,2.228 4.049,1.753 C3.746,1.450 3.539,1.025 2.936,1.024 Z"/>
</svg>